# xmcd
#
# Track frame offsets: 
#        150
#        14663
#        27504
#        62015
#        80085
#        101707
#        109642
#        130994
#        159945
#
# Disc length: 2394 seconds
#
# Revision: 0
# Processed by: cddbd v1.5.2PL0 Copyright (c) Steve Scherf et al.
# Submitted via: ExactAudioCopyFreeDBPlugin 1.0
#
DISCID=73095809
DTITLE=Seth Yacovone - Land of Split Decision
DYEAR=2008
DGENRE=Blues
TTITLE0=Measured Mile
TTITLE1=$12.99 Matching Gasoline Filled Insoles Sold Separately
TTITLE2=Can't Get Sick
TTITLE3=George
TTITLE4=Martha
TTITLE5=A.S.U.
TTITLE6=Inward Outward and in Between
TTITLE7=Reap the Reward
TTITLE8=Don't Retread on Me
EXTD=
EXTT0=
EXTT1=
EXTT2=
EXTT3=
EXTT4=
EXTT5=
EXTT6=
EXTT7=
EXTT8=
PLAYORDER=
